<svg xmlns="http://www.w3.org/2000/svg" xmlns:xlink="http://www.w3.org/1999/xlink" version="1.1" id="Layer_1" x="0px" y="0px" width="500px" height="500px" viewBox="0 0 500 500" enable-background="new 0 0 500 500" xml:space="preserve">
  <path id="wires" fill="#FFFFFF" d="M244.952 1.501L30.366 125.391v247.788l214.586 123.893 214.584-123.891v-247.79L244.952 1.501zM351.878 65.544l104.178 60.147L351.878 185.84V65.544zM351.878 191.107l100.897 58.255 -100.897 58.253V191.107zM32.367 127.151l105.719 61.089L32.367 249.279V127.151zM32.367 249.445l104.675 60.435L32.367 370.315V249.445zM138.153 433.1L33.401 372.623l104.752-60.481V433.1zM138.153 307.616L37.254 249.362l100.899-58.256V307.616zM138.153 185.374L34.357 125.396 138.153 65.47V185.374zM244.952 494.758l-106.095-61.252 106.156-61.288 106.092 61.253L244.952 494.758zM349.36 311.975v117.58l-101.828-58.79L349.36 311.975zM245.016 369.312l-102.941-59.433 103.3-59.643 102.9 59.46L245.016 369.312zM247.89 248.784l101.471-58.586v117.221L247.89 248.784zM347.316 188.474l-101.94 58.858 -102.262-59.091 101.899-58.833L347.316 188.474zM247.53 127.954l101.83-58.793v117.588L247.53 127.954zM140.667 186.75V69.161l101.831 58.794L140.667 186.75zM242.861 248.784l-102.194 59.003V189.731L242.861 248.784zM242.497 370.766l-101.83 58.791V311.972L242.497 370.766zM245.016 126.502L138.731 65.136 244.952 3.81l106.283 61.363L245.016 126.502zM457.534 372.026l-0.697 0.402 -104.959 60.598V311.778l102.715 59.354 1.258-2.18 -102.547-59.255 104.23-60.176V372.026zM457.534 249.206l-105.187-60.733 105.187-60.731V249.206z"/>
  <polygon id="cover" points="139.517 310.425 139.517 188.147 245.409 127.01 351.301 188.147 351.301 310.425 245.409 371.562 "/>
  <path id="thick-yellow-hex" fill="#F7EC1D" d="M245.409 374.449l-108.394-62.581V186.704l108.394-62.581 108.392 62.581v125.165L245.409 374.449zM142.017 308.98l103.394 59.694 103.392-59.694V189.59L245.41 129.896 142.017 189.59V308.98z"/>
  <g>
    <g>
      <path id="power-circle" fill="#F7EC1D" d="M244.061 311.729c-17.14 0-33.265-6.646-45.43-18.732 -12.221-12.141-18.979-28.311-19.033-45.533 -0.084-24.775 14.357-47.695 36.791-58.389l4.946 10.381c-18.437 8.791-30.307 27.621-30.238 47.971 0.044 14.152 5.599 27.438 15.639 37.416 9.995 9.934 23.247 15.395 37.327 15.395 0.062 0 0.122 0 0.188 0 14.156-0.051 27.443-5.604 37.418-15.647 9.974-10.04 15.438-23.362 15.383-37.513 -0.062-20.35-12.062-39.1-30.563-47.771l4.88-10.411c22.511 10.547 37.105 33.369 37.188 58.142 0.062 17.221-6.588 33.438-18.727 45.657 -12.141 12.221-28.312 18.98-45.539 19.039C244.21 311.729 244.137 311.729 244.061 311.729z"/>
    </g>
    <g>
      <rect id="power-line" x="239.466" y="171.596" fill="#F7EC1D" width="11.5" height="77.989"/>
    </g>
  </g>
</svg>
